<mxfile host="app.diagrams.net" agent="Mozilla/5.0 (Windows NT 10.0; Win64; x64) AppleWebKit/537.36 (KHTML, like Gecko) Chrome/131.0.0.0 Safari/537.36 Edg/131.0.0.0" version="24.9.0">
  <diagram name="Page-1" id="b7a7eaba-c6c5-6fbe-34ae-1d3a4219ac39">
    <mxGraphModel dx="2033" dy="1023" grid="1" gridSize="10" guides="1" tooltips="1" connect="1" arrows="1" fold="1" page="1" pageScale="1.5" pageWidth="1169" pageHeight="826" background="none" math="0" shadow="0">
      <root>
        <mxCell id="0" style=";html=1;" />
        <mxCell id="1" style=";html=1;" parent="0" />
        <mxCell id="QLjQdh_k3CfdYv2O6l8M-19" value="" style="endArrow=none;html=1;rounded=0;" edge="1" parent="1">
          <mxGeometry width="50" height="50" relative="1" as="geometry">
            <mxPoint x="90" y="1220" as="sourcePoint" />
            <mxPoint x="1360" y="1220" as="targetPoint" />
          </mxGeometry>
        </mxCell>
        <mxCell id="QLjQdh_k3CfdYv2O6l8M-20" value="" style="triangle;whiteSpace=wrap;html=1;" vertex="1" parent="1">
          <mxGeometry x="1360" y="1080" width="230" height="280" as="geometry" />
        </mxCell>
        <mxCell id="QLjQdh_k3CfdYv2O6l8M-21" value="&lt;span style=&quot;font-size: 20px;&quot;&gt;Difficulté à trouver et à partager du matériel/outils d’apprentissage&lt;/span&gt;" style="text;html=1;align=left;verticalAlign=middle;whiteSpace=wrap;rounded=0;" vertex="1" parent="1">
          <mxGeometry x="1370" y="1140" width="150" height="130" as="geometry" />
        </mxCell>
        <mxCell id="QLjQdh_k3CfdYv2O6l8M-22" value="" style="endArrow=classic;html=1;rounded=0;" edge="1" parent="1">
          <mxGeometry width="50" height="50" relative="1" as="geometry">
            <mxPoint x="1119" y="1000" as="sourcePoint" />
            <mxPoint x="1279" y="1220" as="targetPoint" />
          </mxGeometry>
        </mxCell>
        <mxCell id="QLjQdh_k3CfdYv2O6l8M-23" value="Produit" style="rounded=1;whiteSpace=wrap;html=1;shadow=1;strokeWidth=2;fontSize=20;" vertex="1" parent="1">
          <mxGeometry x="1039" y="960" width="150" height="40" as="geometry" />
        </mxCell>
        <mxCell id="QLjQdh_k3CfdYv2O6l8M-24" value="" style="endArrow=classic;html=1;rounded=0;" edge="1" parent="1">
          <mxGeometry width="50" height="50" relative="1" as="geometry">
            <mxPoint x="937" y="1078" as="sourcePoint" />
            <mxPoint x="1176" y="1078" as="targetPoint" />
          </mxGeometry>
        </mxCell>
        <mxCell id="QLjQdh_k3CfdYv2O6l8M-32" value="&lt;font style=&quot;background-color: rgb(251, 251, 251); font-size: 18px;&quot;&gt;Documentation est&amp;nbsp;&lt;/font&gt;&lt;div style=&quot;font-size: 12px; background-color: rgb(251, 251, 251);&quot;&gt;&lt;font style=&quot;font-size: 18px;&quot;&gt;incomplète&amp;nbsp;&lt;/font&gt;&lt;span style=&quot;font-size: 18px; background-color: initial;&quot;&gt;ou inexacte&lt;/span&gt;&lt;/div&gt;" style="edgeLabel;html=1;align=center;verticalAlign=middle;resizable=0;points=[];" vertex="1" connectable="0" parent="QLjQdh_k3CfdYv2O6l8M-24">
          <mxGeometry x="-0.0794" y="1" relative="1" as="geometry">
            <mxPoint x="8" y="1" as="offset" />
          </mxGeometry>
        </mxCell>
        <mxCell id="QLjQdh_k3CfdYv2O6l8M-28" value="" style="endArrow=classic;html=1;rounded=0;" edge="1" parent="1">
          <mxGeometry width="50" height="50" relative="1" as="geometry">
            <mxPoint x="904" y="1201" as="sourcePoint" />
            <mxPoint x="1264" y="1201" as="targetPoint" />
          </mxGeometry>
        </mxCell>
        <mxCell id="QLjQdh_k3CfdYv2O6l8M-34" value="&lt;span style=&quot;background-color: rgb(251, 251, 251); font-size: 18px;&quot;&gt;Manque de documentation&amp;nbsp;&lt;/span&gt;&lt;span style=&quot;background-color: rgb(251, 251, 251); font-size: 18px;&quot;&gt;à jour&lt;/span&gt;" style="edgeLabel;html=1;align=center;verticalAlign=middle;resizable=0;points=[];" vertex="1" connectable="0" parent="QLjQdh_k3CfdYv2O6l8M-28">
          <mxGeometry x="-0.2373" y="1" relative="1" as="geometry">
            <mxPoint x="31" y="1" as="offset" />
          </mxGeometry>
        </mxCell>
        <mxCell id="QLjQdh_k3CfdYv2O6l8M-36" value="" style="edgeStyle=segmentEdgeStyle;endArrow=classic;html=1;curved=0;rounded=0;endSize=8;startSize=8;" edge="1" parent="1">
          <mxGeometry width="50" height="50" relative="1" as="geometry">
            <mxPoint x="900" y="1120" as="sourcePoint" />
            <mxPoint x="1110" y="1100" as="targetPoint" />
            <Array as="points">
              <mxPoint x="900" y="1120" />
              <mxPoint x="1110" y="1120" />
            </Array>
          </mxGeometry>
        </mxCell>
        <mxCell id="QLjQdh_k3CfdYv2O6l8M-37" value="Text" style="edgeLabel;html=1;align=center;verticalAlign=middle;resizable=0;points=[];" vertex="1" connectable="0" parent="QLjQdh_k3CfdYv2O6l8M-36">
          <mxGeometry x="-0.6979" relative="1" as="geometry">
            <mxPoint as="offset" />
          </mxGeometry>
        </mxCell>
        <mxCell id="QLjQdh_k3CfdYv2O6l8M-38" value="&lt;font style=&quot;font-size: 14px;&quot;&gt;Mal compréhension du sujet&lt;/font&gt;" style="edgeLabel;html=1;align=center;verticalAlign=middle;resizable=0;points=[];" vertex="1" connectable="0" parent="QLjQdh_k3CfdYv2O6l8M-36">
          <mxGeometry x="-0.7239" y="-1" relative="1" as="geometry">
            <mxPoint x="67" as="offset" />
          </mxGeometry>
        </mxCell>
        <mxCell id="QLjQdh_k3CfdYv2O6l8M-40" value="" style="edgeStyle=segmentEdgeStyle;endArrow=classic;html=1;curved=0;rounded=0;endSize=8;startSize=8;" edge="1" parent="1">
          <mxGeometry width="50" height="50" relative="1" as="geometry">
            <mxPoint x="900" y="1030" as="sourcePoint" />
            <mxPoint x="1100" y="1060" as="targetPoint" />
            <Array as="points">
              <mxPoint x="930" y="1030" />
              <mxPoint x="1100" y="1030" />
            </Array>
          </mxGeometry>
        </mxCell>
        <mxCell id="QLjQdh_k3CfdYv2O6l8M-41" value="&lt;font style=&quot;font-size: 14px;&quot;&gt;Sources ne sont pas fiables&lt;/font&gt;" style="edgeLabel;html=1;align=center;verticalAlign=middle;resizable=0;points=[];" vertex="1" connectable="0" parent="QLjQdh_k3CfdYv2O6l8M-40">
          <mxGeometry x="-0.1259" y="2" relative="1" as="geometry">
            <mxPoint as="offset" />
          </mxGeometry>
        </mxCell>
        <mxCell id="QLjQdh_k3CfdYv2O6l8M-42" value="" style="edgeStyle=segmentEdgeStyle;endArrow=classic;html=1;curved=0;rounded=0;endSize=8;startSize=8;" edge="1" parent="1">
          <mxGeometry width="50" height="50" relative="1" as="geometry">
            <mxPoint x="820" y="1000" as="sourcePoint" />
            <mxPoint x="1030" y="1020" as="targetPoint" />
          </mxGeometry>
        </mxCell>
        <mxCell id="QLjQdh_k3CfdYv2O6l8M-43" value="&lt;font style=&quot;font-size: 14px;&quot;&gt;Pas de vérification des fichiers&lt;/font&gt;" style="edgeLabel;html=1;align=center;verticalAlign=middle;resizable=0;points=[];" vertex="1" connectable="0" parent="QLjQdh_k3CfdYv2O6l8M-42">
          <mxGeometry x="-0.2256" y="1" relative="1" as="geometry">
            <mxPoint x="17" y="1" as="offset" />
          </mxGeometry>
        </mxCell>
        <mxCell id="QLjQdh_k3CfdYv2O6l8M-44" value="Processus" style="rounded=1;whiteSpace=wrap;html=1;shadow=1;strokeWidth=2;fontSize=20;" vertex="1" parent="1">
          <mxGeometry x="649" y="960" width="150" height="40" as="geometry" />
        </mxCell>
        <mxCell id="QLjQdh_k3CfdYv2O6l8M-45" value="" style="endArrow=classic;html=1;rounded=0;" edge="1" parent="1">
          <mxGeometry width="50" height="50" relative="1" as="geometry">
            <mxPoint x="537" y="1064" as="sourcePoint" />
            <mxPoint x="776" y="1064" as="targetPoint" />
          </mxGeometry>
        </mxCell>
        <mxCell id="QLjQdh_k3CfdYv2O6l8M-46" value="&lt;span style=&quot;font-size: 18px; background-color: rgb(251, 251, 251);&quot;&gt;Processus de recherche&lt;/span&gt;&lt;div&gt;&lt;span style=&quot;font-size: 18px; background-color: rgb(251, 251, 251);&quot;&gt;document non optimisé&lt;/span&gt;&lt;/div&gt;" style="edgeLabel;html=1;align=center;verticalAlign=middle;resizable=0;points=[];" vertex="1" connectable="0" parent="QLjQdh_k3CfdYv2O6l8M-45">
          <mxGeometry x="-0.0794" y="1" relative="1" as="geometry">
            <mxPoint x="8" y="2" as="offset" />
          </mxGeometry>
        </mxCell>
        <mxCell id="QLjQdh_k3CfdYv2O6l8M-47" value="" style="endArrow=classic;html=1;rounded=0;" edge="1" parent="1">
          <mxGeometry width="50" height="50" relative="1" as="geometry">
            <mxPoint x="572" y="1184" as="sourcePoint" />
            <mxPoint x="862" y="1184" as="targetPoint" />
          </mxGeometry>
        </mxCell>
        <mxCell id="QLjQdh_k3CfdYv2O6l8M-48" value="&lt;span style=&quot;font-size: 18px; background-color: rgb(251, 251, 251);&quot;&gt;Manque de retour d&#39;expérience&lt;/span&gt;" style="edgeLabel;html=1;align=center;verticalAlign=middle;resizable=0;points=[];" vertex="1" connectable="0" parent="QLjQdh_k3CfdYv2O6l8M-47">
          <mxGeometry x="-0.2373" y="1" relative="1" as="geometry">
            <mxPoint x="31" y="1" as="offset" />
          </mxGeometry>
        </mxCell>
        <mxCell id="QLjQdh_k3CfdYv2O6l8M-52" value="" style="edgeStyle=segmentEdgeStyle;endArrow=classic;html=1;curved=0;rounded=0;endSize=8;startSize=8;" edge="1" parent="1">
          <mxGeometry width="50" height="50" relative="1" as="geometry">
            <mxPoint x="470" y="1016" as="sourcePoint" />
            <mxPoint x="670" y="1046" as="targetPoint" />
            <Array as="points">
              <mxPoint x="500" y="1016" />
              <mxPoint x="670" y="1016" />
            </Array>
          </mxGeometry>
        </mxCell>
        <mxCell id="QLjQdh_k3CfdYv2O6l8M-53" value="&lt;font style=&quot;font-size: 14px;&quot;&gt;Manque de moteurs de&amp;nbsp;&lt;/font&gt;&lt;div&gt;&lt;font style=&quot;font-size: 14px;&quot;&gt;recherche efficaces&lt;/font&gt;&lt;/div&gt;" style="edgeLabel;html=1;align=center;verticalAlign=middle;resizable=0;points=[];" vertex="1" connectable="0" parent="QLjQdh_k3CfdYv2O6l8M-52">
          <mxGeometry x="-0.1259" y="2" relative="1" as="geometry">
            <mxPoint as="offset" />
          </mxGeometry>
        </mxCell>
        <mxCell id="QLjQdh_k3CfdYv2O6l8M-56" value="" style="endArrow=classic;html=1;rounded=0;" edge="1" parent="1">
          <mxGeometry width="50" height="50" relative="1" as="geometry">
            <mxPoint x="730" y="1000" as="sourcePoint" />
            <mxPoint x="890" y="1220" as="targetPoint" />
          </mxGeometry>
        </mxCell>
        <mxCell id="QLjQdh_k3CfdYv2O6l8M-57" value="Personnes" style="rounded=1;whiteSpace=wrap;html=1;shadow=1;strokeWidth=2;fontSize=20;" vertex="1" parent="1">
          <mxGeometry x="304" y="959" width="150" height="40" as="geometry" />
        </mxCell>
        <mxCell id="QLjQdh_k3CfdYv2O6l8M-60" value="" style="endArrow=classic;html=1;rounded=0;" edge="1" parent="1">
          <mxGeometry width="50" height="50" relative="1" as="geometry">
            <mxPoint x="123" y="1144" as="sourcePoint" />
            <mxPoint x="493" y="1144" as="targetPoint" />
          </mxGeometry>
        </mxCell>
        <mxCell id="QLjQdh_k3CfdYv2O6l8M-61" value="&lt;span style=&quot;background-color: rgb(251, 251, 251); font-size: 18px;&quot;&gt;Manque d&#39;implication des&lt;/span&gt;&lt;div&gt;&lt;span style=&quot;font-size: 18px; background-color: rgb(251, 251, 251);&quot;&gt;enseignants dans la fourniture du matériel&lt;/span&gt;&lt;/div&gt;" style="edgeLabel;html=1;align=center;verticalAlign=middle;resizable=0;points=[];" vertex="1" connectable="0" parent="QLjQdh_k3CfdYv2O6l8M-60">
          <mxGeometry x="-0.2373" y="1" relative="1" as="geometry">
            <mxPoint x="39" y="1" as="offset" />
          </mxGeometry>
        </mxCell>
        <mxCell id="QLjQdh_k3CfdYv2O6l8M-64" value="" style="endArrow=classic;html=1;rounded=0;" edge="1" parent="1">
          <mxGeometry width="50" height="50" relative="1" as="geometry">
            <mxPoint x="388" y="1000" as="sourcePoint" />
            <mxPoint x="548" y="1220" as="targetPoint" />
          </mxGeometry>
        </mxCell>
        <mxCell id="QLjQdh_k3CfdYv2O6l8M-66" value="" style="endArrow=classic;html=1;rounded=0;" edge="1" parent="1">
          <mxGeometry width="50" height="50" relative="1" as="geometry">
            <mxPoint x="1120" y="1440" as="sourcePoint" />
            <mxPoint x="1280" y="1220" as="targetPoint" />
          </mxGeometry>
        </mxCell>
        <mxCell id="QLjQdh_k3CfdYv2O6l8M-67" value="Place" style="rounded=1;whiteSpace=wrap;html=1;shadow=1;strokeWidth=2;fontSize=20;" vertex="1" parent="1">
          <mxGeometry x="1039" y="1440" width="150" height="40" as="geometry" />
        </mxCell>
        <mxCell id="QLjQdh_k3CfdYv2O6l8M-68" value="" style="endArrow=classic;html=1;rounded=0;" edge="1" parent="1">
          <mxGeometry width="50" height="50" relative="1" as="geometry">
            <mxPoint x="911" y="1397.98" as="sourcePoint" />
            <mxPoint x="1150" y="1397.98" as="targetPoint" />
          </mxGeometry>
        </mxCell>
        <mxCell id="QLjQdh_k3CfdYv2O6l8M-69" value="&lt;span style=&quot;font-size: 18px; background-color: rgb(251, 251, 251);&quot;&gt;Interface n&#39;est pas&lt;/span&gt;&lt;div&gt;&lt;span style=&quot;font-size: 18px; background-color: rgb(251, 251, 251);&quot;&gt;conviviale&lt;/span&gt;&lt;/div&gt;" style="edgeLabel;html=1;align=center;verticalAlign=middle;resizable=0;points=[];" vertex="1" connectable="0" parent="QLjQdh_k3CfdYv2O6l8M-68">
          <mxGeometry x="-0.0794" y="1" relative="1" as="geometry">
            <mxPoint x="8" y="1" as="offset" />
          </mxGeometry>
        </mxCell>
        <mxCell id="QLjQdh_k3CfdYv2O6l8M-71" value="" style="edgeStyle=segmentEdgeStyle;endArrow=classic;html=1;curved=0;rounded=0;endSize=8;startSize=8;" edge="1" parent="1">
          <mxGeometry width="50" height="50" relative="1" as="geometry">
            <mxPoint x="818" y="1449.98" as="sourcePoint" />
            <mxPoint x="1028" y="1419.98" as="targetPoint" />
            <Array as="points">
              <mxPoint x="938" y="1449.98" />
              <mxPoint x="1028" y="1449.98" />
            </Array>
          </mxGeometry>
        </mxCell>
        <mxCell id="QLjQdh_k3CfdYv2O6l8M-73" value="&lt;font style=&quot;font-size: 14px;&quot;&gt;Manque des étiquettes ou&lt;/font&gt;&lt;div&gt;&lt;font style=&quot;font-size: 14px;&quot;&gt;classification pour documents&lt;/font&gt;&lt;/div&gt;" style="edgeLabel;html=1;align=center;verticalAlign=middle;resizable=0;points=[];" vertex="1" connectable="0" parent="QLjQdh_k3CfdYv2O6l8M-71">
          <mxGeometry x="-0.7239" y="-1" relative="1" as="geometry">
            <mxPoint x="67" as="offset" />
          </mxGeometry>
        </mxCell>
        <mxCell id="QLjQdh_k3CfdYv2O6l8M-74" value="" style="edgeStyle=segmentEdgeStyle;endArrow=classic;html=1;curved=0;rounded=0;endSize=8;startSize=8;" edge="1" parent="1">
          <mxGeometry width="50" height="50" relative="1" as="geometry">
            <mxPoint x="874" y="1349.98" as="sourcePoint" />
            <mxPoint x="1074" y="1379.98" as="targetPoint" />
            <Array as="points">
              <mxPoint x="904" y="1349.98" />
              <mxPoint x="1074" y="1349.98" />
            </Array>
          </mxGeometry>
        </mxCell>
        <mxCell id="QLjQdh_k3CfdYv2O6l8M-75" value="&lt;span style=&quot;font-size: 14px;&quot;&gt;Manque d&#39;instruction&lt;/span&gt;" style="edgeLabel;html=1;align=center;verticalAlign=middle;resizable=0;points=[];" vertex="1" connectable="0" parent="QLjQdh_k3CfdYv2O6l8M-74">
          <mxGeometry x="-0.1259" y="2" relative="1" as="geometry">
            <mxPoint as="offset" />
          </mxGeometry>
        </mxCell>
        <mxCell id="QLjQdh_k3CfdYv2O6l8M-77" value="" style="edgeStyle=segmentEdgeStyle;endArrow=classic;html=1;curved=0;rounded=0;endSize=8;startSize=8;" edge="1" parent="1">
          <mxGeometry width="50" height="50" relative="1" as="geometry">
            <mxPoint x="790" y="1500" as="sourcePoint" />
            <mxPoint x="980" y="1470" as="targetPoint" />
            <Array as="points">
              <mxPoint x="930" y="1500" />
              <mxPoint x="980" y="1500" />
            </Array>
          </mxGeometry>
        </mxCell>
        <mxCell id="QLjQdh_k3CfdYv2O6l8M-78" value="&lt;font style=&quot;font-size: 14px;&quot;&gt;Manque gestion correcte&amp;nbsp;&lt;/font&gt;&lt;div&gt;&lt;font size=&quot;3&quot;&gt;des documents&lt;/font&gt;&lt;/div&gt;" style="edgeLabel;html=1;align=center;verticalAlign=middle;resizable=0;points=[];" vertex="1" connectable="0" parent="QLjQdh_k3CfdYv2O6l8M-77">
          <mxGeometry x="-0.2094" y="2" relative="1" as="geometry">
            <mxPoint x="11" as="offset" />
          </mxGeometry>
        </mxCell>
        <mxCell id="QLjQdh_k3CfdYv2O6l8M-79" value="" style="endArrow=classic;html=1;rounded=0;" edge="1" parent="1">
          <mxGeometry width="50" height="50" relative="1" as="geometry">
            <mxPoint x="970" y="1270" as="sourcePoint" />
            <mxPoint x="1243" y="1270" as="targetPoint" />
          </mxGeometry>
        </mxCell>
        <mxCell id="QLjQdh_k3CfdYv2O6l8M-80" value="&lt;span style=&quot;font-size: 18px; background-color: rgb(251, 251, 251);&quot;&gt;Manque d&#39;espace discussion&lt;/span&gt;&lt;div&gt;&lt;span style=&quot;font-size: 18px; background-color: rgb(251, 251, 251);&quot;&gt;pour les étudiants&lt;/span&gt;&lt;/div&gt;" style="edgeLabel;html=1;align=center;verticalAlign=middle;resizable=0;points=[];" vertex="1" connectable="0" parent="QLjQdh_k3CfdYv2O6l8M-79">
          <mxGeometry x="-0.0794" y="1" relative="1" as="geometry">
            <mxPoint x="8" y="1" as="offset" />
          </mxGeometry>
        </mxCell>
        <mxCell id="QLjQdh_k3CfdYv2O6l8M-81" value="" style="edgeStyle=segmentEdgeStyle;endArrow=classic;html=1;curved=0;rounded=0;endSize=8;startSize=8;" edge="1" parent="1">
          <mxGeometry width="50" height="50" relative="1" as="geometry">
            <mxPoint x="860" y="1320" as="sourcePoint" />
            <mxPoint x="1100" y="1290" as="targetPoint" />
            <Array as="points">
              <mxPoint x="1010" y="1320" />
              <mxPoint x="1100" y="1320" />
            </Array>
          </mxGeometry>
        </mxCell>
        <mxCell id="QLjQdh_k3CfdYv2O6l8M-83" value="&lt;font style=&quot;font-size: 14px;&quot;&gt;Pas de fonctionnalité pour chatter&lt;/font&gt;&lt;div&gt;&lt;font style=&quot;font-size: 14px;&quot;&gt;avec un étudiant réel&lt;/font&gt;&lt;/div&gt;" style="edgeLabel;html=1;align=center;verticalAlign=middle;resizable=0;points=[];" vertex="1" connectable="0" parent="QLjQdh_k3CfdYv2O6l8M-81">
          <mxGeometry x="-0.7239" y="-1" relative="1" as="geometry">
            <mxPoint x="83" y="-3" as="offset" />
          </mxGeometry>
        </mxCell>
        <mxCell id="QLjQdh_k3CfdYv2O6l8M-85" value="Politique" style="rounded=1;whiteSpace=wrap;html=1;shadow=1;strokeWidth=2;fontSize=20;" vertex="1" parent="1">
          <mxGeometry x="581" y="1440" width="150" height="40" as="geometry" />
        </mxCell>
        <mxCell id="QLjQdh_k3CfdYv2O6l8M-86" value="" style="endArrow=classic;html=1;rounded=0;" edge="1" parent="1">
          <mxGeometry width="50" height="50" relative="1" as="geometry">
            <mxPoint x="310" y="1416" as="sourcePoint" />
            <mxPoint x="673" y="1416" as="targetPoint" />
          </mxGeometry>
        </mxCell>
        <mxCell id="QLjQdh_k3CfdYv2O6l8M-87" value="&lt;span style=&quot;font-size: 18px; background-color: rgb(251, 251, 251);&quot;&gt;Absence de politique d&#39;authentification&lt;/span&gt;&lt;div&gt;&lt;span style=&quot;font-size: 18px; background-color: rgb(251, 251, 251);&quot;&gt;des informations utilisateur&lt;/span&gt;&lt;/div&gt;" style="edgeLabel;html=1;align=center;verticalAlign=middle;resizable=0;points=[];" vertex="1" connectable="0" parent="QLjQdh_k3CfdYv2O6l8M-86">
          <mxGeometry x="-0.0794" y="1" relative="1" as="geometry">
            <mxPoint x="3" as="offset" />
          </mxGeometry>
        </mxCell>
        <mxCell id="QLjQdh_k3CfdYv2O6l8M-88" value="" style="edgeStyle=segmentEdgeStyle;endArrow=classic;html=1;curved=0;rounded=0;endSize=8;startSize=8;" edge="1" parent="1">
          <mxGeometry width="50" height="50" relative="1" as="geometry">
            <mxPoint x="312.98" y="1470" as="sourcePoint" />
            <mxPoint x="522.98" y="1440" as="targetPoint" />
            <Array as="points">
              <mxPoint x="432.98" y="1470" />
              <mxPoint x="522.98" y="1470" />
            </Array>
          </mxGeometry>
        </mxCell>
        <mxCell id="QLjQdh_k3CfdYv2O6l8M-89" value="&lt;span style=&quot;font-size: 14px;&quot;&gt;Étape d&#39;inscription manque&lt;/span&gt;&lt;div&gt;&lt;span style=&quot;font-size: 14px;&quot;&gt;les informations critiques&lt;/span&gt;&lt;/div&gt;" style="edgeLabel;html=1;align=center;verticalAlign=middle;resizable=0;points=[];" vertex="1" connectable="0" parent="QLjQdh_k3CfdYv2O6l8M-88">
          <mxGeometry x="-0.7239" y="-1" relative="1" as="geometry">
            <mxPoint x="67" as="offset" />
          </mxGeometry>
        </mxCell>
        <mxCell id="QLjQdh_k3CfdYv2O6l8M-93" value="" style="endArrow=classic;html=1;rounded=0;" edge="1" parent="1">
          <mxGeometry width="50" height="50" relative="1" as="geometry">
            <mxPoint x="470" y="1270" as="sourcePoint" />
            <mxPoint x="785" y="1270" as="targetPoint" />
          </mxGeometry>
        </mxCell>
        <mxCell id="QLjQdh_k3CfdYv2O6l8M-94" value="&lt;span style=&quot;font-size: 18px; background-color: rgb(251, 251, 251);&quot;&gt;Absence de politique claire sur&lt;/span&gt;&lt;div&gt;&lt;span style=&quot;font-size: 18px; background-color: rgb(251, 251, 251);&quot;&gt;le partage des documents&lt;/span&gt;&lt;/div&gt;" style="edgeLabel;html=1;align=center;verticalAlign=middle;resizable=0;points=[];" vertex="1" connectable="0" parent="QLjQdh_k3CfdYv2O6l8M-93">
          <mxGeometry x="-0.0794" y="1" relative="1" as="geometry">
            <mxPoint x="8" y="1" as="offset" />
          </mxGeometry>
        </mxCell>
        <mxCell id="QLjQdh_k3CfdYv2O6l8M-95" value="" style="edgeStyle=segmentEdgeStyle;endArrow=classic;html=1;curved=0;rounded=0;endSize=8;startSize=8;" edge="1" parent="1">
          <mxGeometry width="50" height="50" relative="1" as="geometry">
            <mxPoint x="402" y="1320" as="sourcePoint" />
            <mxPoint x="642" y="1290" as="targetPoint" />
            <Array as="points">
              <mxPoint x="552" y="1320" />
              <mxPoint x="642" y="1320" />
            </Array>
          </mxGeometry>
        </mxCell>
        <mxCell id="QLjQdh_k3CfdYv2O6l8M-96" value="&lt;span style=&quot;font-size: 14px;&quot;&gt;Pas obligatoire de fournir l&#39;objectif&lt;/span&gt;&lt;div&gt;&lt;span style=&quot;font-size: 14px;&quot;&gt;ou résumé du document&lt;/span&gt;&lt;/div&gt;" style="edgeLabel;html=1;align=center;verticalAlign=middle;resizable=0;points=[];" vertex="1" connectable="0" parent="QLjQdh_k3CfdYv2O6l8M-95">
          <mxGeometry x="-0.7239" y="-1" relative="1" as="geometry">
            <mxPoint x="83" y="-3" as="offset" />
          </mxGeometry>
        </mxCell>
        <mxCell id="QLjQdh_k3CfdYv2O6l8M-97" value="" style="endArrow=classic;html=1;rounded=0;" edge="1" parent="1">
          <mxGeometry width="50" height="50" relative="1" as="geometry">
            <mxPoint x="660" y="1440" as="sourcePoint" />
            <mxPoint x="820" y="1220" as="targetPoint" />
          </mxGeometry>
        </mxCell>
        <mxCell id="QLjQdh_k3CfdYv2O6l8M-98" value="" style="endArrow=classic;html=1;rounded=0;" edge="1" parent="1">
          <mxGeometry width="50" height="50" relative="1" as="geometry">
            <mxPoint x="204" y="1361" as="sourcePoint" />
            <mxPoint x="717" y="1361" as="targetPoint" />
          </mxGeometry>
        </mxCell>
        <mxCell id="QLjQdh_k3CfdYv2O6l8M-99" value="&lt;span style=&quot;font-size: 18px; background-color: rgb(251, 251, 251);&quot;&gt;Manque de réglémentation sur la qualité des documents&lt;/span&gt;" style="edgeLabel;html=1;align=center;verticalAlign=middle;resizable=0;points=[];" vertex="1" connectable="0" parent="QLjQdh_k3CfdYv2O6l8M-98">
          <mxGeometry x="-0.0794" y="1" relative="1" as="geometry">
            <mxPoint x="14" y="1" as="offset" />
          </mxGeometry>
        </mxCell>
        <mxCell id="QLjQdh_k3CfdYv2O6l8M-100" value="" style="edgeStyle=segmentEdgeStyle;endArrow=classic;html=1;curved=0;rounded=0;endSize=8;startSize=8;" edge="1" parent="1">
          <mxGeometry width="50" height="50" relative="1" as="geometry">
            <mxPoint x="130" y="1400" as="sourcePoint" />
            <mxPoint x="300" y="1370" as="targetPoint" />
            <Array as="points">
              <mxPoint x="210.00000000000003" y="1400" />
              <mxPoint x="300" y="1400" />
            </Array>
          </mxGeometry>
        </mxCell>
        <mxCell id="QLjQdh_k3CfdYv2O6l8M-101" value="&lt;span style=&quot;font-size: 14px;&quot;&gt;Privilégier quantité&lt;/span&gt;&lt;div&gt;&lt;span style=&quot;font-size: 14px;&quot;&gt;à qualité&lt;/span&gt;&lt;/div&gt;" style="edgeLabel;html=1;align=center;verticalAlign=middle;resizable=0;points=[];" vertex="1" connectable="0" parent="QLjQdh_k3CfdYv2O6l8M-100">
          <mxGeometry x="-0.7239" y="-1" relative="1" as="geometry">
            <mxPoint x="62" as="offset" />
          </mxGeometry>
        </mxCell>
        <mxCell id="QLjQdh_k3CfdYv2O6l8M-102" value="" style="edgeStyle=segmentEdgeStyle;endArrow=classic;html=1;curved=0;rounded=0;endSize=8;startSize=8;" edge="1" parent="1">
          <mxGeometry width="50" height="50" relative="1" as="geometry">
            <mxPoint x="150" y="1320" as="sourcePoint" />
            <mxPoint x="350" y="1350" as="targetPoint" />
            <Array as="points">
              <mxPoint x="180" y="1320" />
              <mxPoint x="350" y="1320" />
            </Array>
          </mxGeometry>
        </mxCell>
        <mxCell id="QLjQdh_k3CfdYv2O6l8M-103" value="&lt;span style=&quot;font-size: 14px;&quot;&gt;Pas de modérateurs&lt;/span&gt;" style="edgeLabel;html=1;align=center;verticalAlign=middle;resizable=0;points=[];" vertex="1" connectable="0" parent="QLjQdh_k3CfdYv2O6l8M-102">
          <mxGeometry x="-0.1259" y="2" relative="1" as="geometry">
            <mxPoint as="offset" />
          </mxGeometry>
        </mxCell>
        <mxCell id="QLjQdh_k3CfdYv2O6l8M-105" value="" style="endArrow=classic;html=1;rounded=0;" edge="1" parent="1">
          <mxGeometry width="50" height="50" relative="1" as="geometry">
            <mxPoint x="139" y="1057" as="sourcePoint" />
            <mxPoint x="429" y="1057" as="targetPoint" />
          </mxGeometry>
        </mxCell>
        <mxCell id="QLjQdh_k3CfdYv2O6l8M-106" value="&lt;span style=&quot;font-size: 18px;&quot;&gt;Manque d&#39;implication des&amp;nbsp;&lt;/span&gt;&lt;div&gt;&lt;span style=&quot;font-size: 18px;&quot;&gt;étudiants eux-mêmes&lt;/span&gt;&lt;/div&gt;" style="edgeLabel;html=1;align=center;verticalAlign=middle;resizable=0;points=[];" vertex="1" connectable="0" parent="QLjQdh_k3CfdYv2O6l8M-105">
          <mxGeometry x="-0.2373" y="1" relative="1" as="geometry">
            <mxPoint x="39" y="1" as="offset" />
          </mxGeometry>
        </mxCell>
        <mxCell id="QLjQdh_k3CfdYv2O6l8M-107" value="" style="edgeStyle=segmentEdgeStyle;endArrow=classic;html=1;curved=0;rounded=0;endSize=8;startSize=8;" edge="1" parent="1">
          <mxGeometry width="50" height="50" relative="1" as="geometry">
            <mxPoint x="109" y="1007" as="sourcePoint" />
            <mxPoint x="309" y="1037" as="targetPoint" />
            <Array as="points">
              <mxPoint x="139" y="1007" />
              <mxPoint x="309" y="1007" />
            </Array>
          </mxGeometry>
        </mxCell>
        <mxCell id="QLjQdh_k3CfdYv2O6l8M-108" value="&lt;font style=&quot;font-size: 14px;&quot;&gt;Manque de motivation&lt;/font&gt;" style="edgeLabel;html=1;align=center;verticalAlign=middle;resizable=0;points=[];" vertex="1" connectable="0" parent="QLjQdh_k3CfdYv2O6l8M-107">
          <mxGeometry x="-0.1259" y="2" relative="1" as="geometry">
            <mxPoint as="offset" />
          </mxGeometry>
        </mxCell>
        <mxCell id="QLjQdh_k3CfdYv2O6l8M-109" value="" style="edgeStyle=segmentEdgeStyle;endArrow=classic;html=1;curved=0;rounded=0;endSize=8;startSize=8;" edge="1" parent="1">
          <mxGeometry width="50" height="50" relative="1" as="geometry">
            <mxPoint x="73" y="1094" as="sourcePoint" />
            <mxPoint x="273" y="1124" as="targetPoint" />
            <Array as="points">
              <mxPoint x="103" y="1094" />
              <mxPoint x="273" y="1094" />
            </Array>
          </mxGeometry>
        </mxCell>
        <mxCell id="QLjQdh_k3CfdYv2O6l8M-110" value="&lt;font style=&quot;font-size: 14px;&quot;&gt;Pas familier avec technologie&lt;/font&gt;" style="edgeLabel;html=1;align=center;verticalAlign=middle;resizable=0;points=[];" vertex="1" connectable="0" parent="QLjQdh_k3CfdYv2O6l8M-109">
          <mxGeometry x="-0.1259" y="2" relative="1" as="geometry">
            <mxPoint as="offset" />
          </mxGeometry>
        </mxCell>
        <mxCell id="QLjQdh_k3CfdYv2O6l8M-111" value="" style="edgeStyle=segmentEdgeStyle;endArrow=classic;html=1;curved=0;rounded=0;endSize=8;startSize=8;" edge="1" parent="1">
          <mxGeometry width="50" height="50" relative="1" as="geometry">
            <mxPoint x="520" y="1106" as="sourcePoint" />
            <mxPoint x="730" y="1086" as="targetPoint" />
            <Array as="points">
              <mxPoint x="520" y="1106" />
              <mxPoint x="730" y="1106" />
            </Array>
          </mxGeometry>
        </mxCell>
        <mxCell id="QLjQdh_k3CfdYv2O6l8M-113" value="&lt;font style=&quot;font-size: 14px;&quot;&gt;Manque de tag,&amp;nbsp;&lt;/font&gt;&lt;div&gt;&lt;font style=&quot;font-size: 14px;&quot;&gt;metadata, filtrage&lt;/font&gt;&lt;/div&gt;" style="edgeLabel;html=1;align=center;verticalAlign=middle;resizable=0;points=[];" vertex="1" connectable="0" parent="QLjQdh_k3CfdYv2O6l8M-111">
          <mxGeometry x="-0.7239" y="-1" relative="1" as="geometry">
            <mxPoint x="67" as="offset" />
          </mxGeometry>
        </mxCell>
        <mxCell id="QLjQdh_k3CfdYv2O6l8M-114" value="" style="edgeStyle=segmentEdgeStyle;endArrow=classic;html=1;curved=0;rounded=0;endSize=8;startSize=8;" edge="1" parent="1">
          <mxGeometry width="50" height="50" relative="1" as="geometry">
            <mxPoint x="550" y="1150" as="sourcePoint" />
            <mxPoint x="770" y="1170" as="targetPoint" />
            <Array as="points">
              <mxPoint x="570" y="1150" />
              <mxPoint x="770" y="1150" />
            </Array>
          </mxGeometry>
        </mxCell>
        <mxCell id="QLjQdh_k3CfdYv2O6l8M-115" value="&lt;span style=&quot;font-size: 14px;&quot;&gt;Manque de feedback system&lt;/span&gt;" style="edgeLabel;html=1;align=center;verticalAlign=middle;resizable=0;points=[];" vertex="1" connectable="0" parent="QLjQdh_k3CfdYv2O6l8M-114">
          <mxGeometry x="-0.1259" y="2" relative="1" as="geometry">
            <mxPoint as="offset" />
          </mxGeometry>
        </mxCell>
        <mxCell id="QLjQdh_k3CfdYv2O6l8M-118" value="" style="edgeStyle=segmentEdgeStyle;endArrow=classic;html=1;curved=0;rounded=0;endSize=8;startSize=8;" edge="1" parent="1">
          <mxGeometry width="50" height="50" relative="1" as="geometry">
            <mxPoint x="860" y="1160" as="sourcePoint" />
            <mxPoint x="1090" y="1130" as="targetPoint" />
            <Array as="points">
              <mxPoint x="1090" y="1160" />
            </Array>
          </mxGeometry>
        </mxCell>
        <mxCell id="QLjQdh_k3CfdYv2O6l8M-119" value="Text" style="edgeLabel;html=1;align=center;verticalAlign=middle;resizable=0;points=[];" vertex="1" connectable="0" parent="QLjQdh_k3CfdYv2O6l8M-118">
          <mxGeometry x="-0.6979" relative="1" as="geometry">
            <mxPoint as="offset" />
          </mxGeometry>
        </mxCell>
        <mxCell id="QLjQdh_k3CfdYv2O6l8M-120" value="&lt;font style=&quot;font-size: 14px;&quot;&gt;Manque de fonctionnalités pour&lt;/font&gt;&lt;div&gt;&lt;span style=&quot;font-size: 14px;&quot;&gt;échange en direct&lt;/span&gt;&lt;/div&gt;" style="edgeLabel;html=1;align=center;verticalAlign=middle;resizable=0;points=[];" vertex="1" connectable="0" parent="QLjQdh_k3CfdYv2O6l8M-118">
          <mxGeometry x="-0.7239" y="-1" relative="1" as="geometry">
            <mxPoint x="74" as="offset" />
          </mxGeometry>
        </mxCell>
        <mxCell id="QLjQdh_k3CfdYv2O6l8M-121" value="" style="endArrow=classic;html=1;rounded=0;" edge="1" parent="1">
          <mxGeometry width="50" height="50" relative="1" as="geometry">
            <mxPoint x="140" y="1190" as="sourcePoint" />
            <mxPoint x="524" y="1190" as="targetPoint" />
          </mxGeometry>
        </mxCell>
        <mxCell id="QLjQdh_k3CfdYv2O6l8M-122" value="&lt;span style=&quot;font-size: 18px;&quot;&gt;Absence de régulation des accès selon rôle&lt;/span&gt;" style="edgeLabel;html=1;align=center;verticalAlign=middle;resizable=0;points=[];" vertex="1" connectable="0" parent="QLjQdh_k3CfdYv2O6l8M-121">
          <mxGeometry x="-0.2373" y="1" relative="1" as="geometry">
            <mxPoint x="39" y="1" as="offset" />
          </mxGeometry>
        </mxCell>
      </root>
    </mxGraphModel>
  </diagram>
</mxfile>
